<?xml version="1.0" encoding="UTF-8"?>
<svg width="22px" height="11px" viewBox="0 0 22 11" version="1.1" xmlns="http://www.w3.org/2000/svg" xmlns:xlink="http://www.w3.org/1999/xlink">
    <!-- Generator: Sketch 55 (78076) - https://sketchapp.com -->
    <title>Fill 1</title>
    <desc>Created with Sketch.</desc>
    <g id="Page-1" stroke="none" stroke-width="1" fill="none" fill-rule="evenodd">
        <path d="M12.3147273,8.87778348 C13.146556,9.72141227 14.1251954,10.4690045 15.2684787,10.8118414 C15.8004911,10.9715907 16.3734537,11.0317216 16.9250302,10.9841559 C17.4339254,10.9410772 17.9410214,10.8513313 18.4196708,10.6628697 C18.8867503,10.4788884 19.3289134,10.2634907 19.7292607,9.96104429 C19.9605684,9.7860371 20.1874349,9.60653594 20.3920726,9.40012615 C20.6011446,9.19101447 20.7817382,8.95856451 20.959683,8.7225396 C21.5753269,7.89866954 21.8956184,6.90066994 21.9828029,5.88210747 C22.0699897,4.85449274 21.820883,3.80176606 21.3440192,2.89532289 C20.8814037,2.01401466 20.1429772,1.25743915 19.2906733,0.754855204 C18.8618567,0.503551744 18.3876713,0.303437177 17.9072454,0.180473554 C17.4134731,0.0548264188 16.882349,-0.0142785863 16.370789,0.0144404962 C15.3494456,0.070084293 14.3797113,0.45869024 13.5593843,1.06895926 C12.7631308,1.66128459 12.0807548,2.3595259 11.4508762,3.12416573 C10.8619252,3.84214279 10.3014208,4.58435876 9.74271555,5.32744779 C9.61638226,5.49617354 9.48915618,5.66398948 9.36015588,5.8318238 C9.41798509,5.75553902 9.47581203,5.68104862 9.53364124,5.60565988 C8.84860047,6.49863954 8.12085569,7.37997075 7.22944634,8.07550097 C7.30506775,8.01716448 7.3789104,7.95883027 7.45364357,7.90049378 C7.09064803,8.18051632 6.70364714,8.42552456 6.2837357,8.60769544 C6.37270126,8.57000222 6.4616691,8.53141066 6.54886501,8.49551181 C6.23925519,8.62564602 5.91898645,8.71987907 5.58623674,8.76655102 C5.68410069,8.75308982 5.78374339,8.73962631 5.88161189,8.7261651 C5.53909151,8.77103809 5.19212991,8.76206395 4.84960953,8.71719096 C4.94747347,8.73065217 5.04711618,8.74411568 5.14498467,8.75757689 C4.76955373,8.70642016 4.40211698,8.60500733 4.05069138,8.45692255 C4.13965695,8.49461578 4.22862479,8.53320733 4.3158207,8.56910618 C3.97330031,8.4237164 3.6530088,8.23525259 3.35676818,8.00549993 C3.43238959,8.06383643 3.50623224,8.12217063 3.58096541,8.18050713 C3.2802608,7.94717033 3.013355,7.67613111 2.78027078,7.37278868 C2.83809999,7.44907345 2.89592692,7.52356386 2.95375613,7.5989526 C2.7295589,7.30098638 2.54006239,6.97790819 2.39505093,6.63148712 C2.43241638,6.72123311 2.47067235,6.81098139 2.50625903,6.8989422 C2.35946425,6.54443384 2.25894014,6.17469289 2.20821915,5.79504959 C2.2215633,5.89377201 2.23490973,5.9942888 2.24825388,6.09301581 C2.19754201,5.69993199 2.19754201,5.30324105 2.24825388,4.91015722 C2.23490973,5.00887964 2.2215633,5.10939643 2.20821915,5.20812344 C2.25893102,4.82939916 2.35946198,4.45873919 2.50625903,4.10423084 C2.46889358,4.19397682 2.43063762,4.2837251 2.39505093,4.37168591 C2.53917642,4.02616088 2.72600138,3.70305972 2.95375613,3.40422043 C2.89592692,3.48050521 2.83809999,3.55499562 2.78027078,3.63038436 C3.01157851,3.32704192 3.2802608,3.05779478 3.58096541,2.82266591 C3.505344,2.8810024 3.43150135,2.9393366 3.35676818,2.9976731 C3.65214333,2.77150918 3.97241207,2.58035037 4.3158207,2.43406685 C4.22685513,2.47176007 4.13788729,2.51035163 4.05069138,2.54625048 C4.40211698,2.398168 4.76864271,2.29676207 5.14498467,2.24559615 C5.04712073,2.25905736 4.94747802,2.27252086 4.84960953,2.28598207 C5.19479464,2.24110908 5.5435555,2.23213264 5.88874062,2.27700793 C5.79087667,2.26354443 5.69123397,2.25008322 5.59336547,2.23662201 C5.91363421,2.281495 6.2205793,2.37124328 6.51861918,2.49688582 C6.42965361,2.4591926 6.34068577,2.42060105 6.25348986,2.38470219 C6.67875355,2.56599083 7.07019565,2.81548843 7.43674416,3.09819908 C7.36112275,3.03986258 7.2872801,2.98152838 7.21254693,2.92319188 C7.50434633,3.15204621 7.78015735,3.40332899 8.04171091,3.66809596 C8.24455385,3.87271827 8.54170093,3.9956773 8.82905911,3.9956773 C9.10307087,3.9956773 9.42691536,3.87451953 9.61640732,3.66809596 C9.80946592,3.45449721 9.95448648,3.17449534 9.94114005,2.87384101 C9.92779362,2.57587479 9.82815319,2.29497919 9.61640732,2.07958607 C8.8139362,1.27007554 7.88333025,0.564642977 6.79179279,0.211053633 C6.28289756,0.0450205753 5.72596884,-0.022283169 5.19218002,0.00643131848 C4.70287169,0.0333560327 4.20643464,0.114127878 3.74201991,0.27388639 C2.83633034,0.586212156 1.98937871,1.12020329 1.36220975,1.855228 C0.739437134,2.58666857 0.269693171,3.46618473 0.100653361,4.42202472 C-0.0755012804,5.4137291 -0.0345760277,6.45928751 0.336425087,7.40352499 C0.514358493,7.85494301 0.71720827,8.28483322 1.00545469,8.67343687 C1.29014814,9.05935241 1.59262924,9.41834094 1.96808364,9.71899527 C2.35064331,10.0241298 2.73497947,10.2915849 3.18515953,10.4881383 C3.45206533,10.604809 3.71717187,10.7143022 3.99653586,10.7932728 C4.27945282,10.8722502 4.56414627,10.9117378 4.85505742,10.947639 C5.83813806,11.0750805 6.80165457,10.8534036 7.67967195,10.4046645 C8.1271645,10.1785006 8.52664634,9.87515356 8.91631196,9.56103572 C9.25261464,9.28999651 9.56400095,8.98844614 9.85935332,8.67432831 C10.4927849,7.99942987 11.0532893,7.25810993 11.610218,6.51860505 C11.7258742,6.3660355 11.8397493,6.21167847 11.9554031,6.05909973 C11.8975739,6.1353845 11.839747,6.20987491 11.7819178,6.28526365 C12.4980926,5.36535697 13.1875974,4.41852329 14.0167614,3.59463025 C14.2569743,3.35679029 14.5078462,3.12974872 14.7729755,2.92152388 C14.6973541,2.97986038 14.6235114,3.03819458 14.5487783,3.09653108 C14.9153268,2.81113232 15.3094336,2.55985184 15.7391613,2.37855401 C15.6501957,2.41624723 15.5612279,2.45483879 15.474032,2.49073764 C15.7720719,2.36509051 16.0834582,2.27534452 16.4037269,2.23047383 C16.305863,2.24393504 16.2062203,2.25739854 16.1083518,2.27085975 C16.4508721,2.22598676 16.7978337,2.2349609 17.1403541,2.27983389 C17.0424902,2.26637268 16.9428475,2.25290918 16.844979,2.23944797 C17.2204099,2.29060469 17.5878467,2.39201752 17.9392723,2.5401023 C17.8503067,2.50240908 17.7613389,2.46381752 17.6741429,2.42791867 C18.0166633,2.57330845 18.3369548,2.76177226 18.6331955,2.99152492 C18.5575741,2.93318842 18.4837314,2.87485422 18.4089982,2.81651772 C18.7097028,3.04985453 18.9766086,3.32089374 19.2096929,3.62423618 C19.1518637,3.5479514 19.0940367,3.47346099 19.0362075,3.39807225 C19.2604047,3.69603848 19.4499013,4.01911667 19.5949127,4.36553773 C19.5575473,4.27579174 19.5192913,4.18604346 19.4837046,4.09808266 C19.6304994,4.45259101 19.7310235,4.82233197 19.7817445,5.20197526 C19.7683981,5.10325284 19.7550539,5.00273605 19.7417098,4.90400904 C19.7924216,5.29709286 19.7924216,5.69378381 19.7417098,6.08686763 C19.7550539,5.98814521 19.7684003,5.88762842 19.7817445,5.78890141 C19.7310326,6.16762569 19.6305017,6.53828566 19.4837046,6.89279401 C19.5210701,6.80304803 19.559326,6.71329975 19.5949127,6.62533894 C19.4507872,6.97086397 19.2639623,7.29396513 19.0362075,7.59280442 C19.0940367,7.51651964 19.1518637,7.44202924 19.2096929,7.3666405 C18.9783851,7.66998293 18.7097028,7.93923008 18.4089982,8.17435895 C18.4846196,8.11602245 18.5584623,8.05768825 18.6331955,7.99935175 C18.3378203,8.22551568 18.0175516,8.41667448 17.6741429,8.562958 C17.7631085,8.52526478 17.8520764,8.48667323 17.9392723,8.45077437 C17.5878467,8.59885686 17.2213209,8.70026279 16.844979,8.7514287 C16.9428429,8.7379675 17.0424856,8.72450399 17.1403541,8.71104278 C16.795169,8.75591577 16.4481846,8.76489221 16.1038878,8.72001692 C16.2017517,8.73348043 16.3013944,8.74694163 16.3992629,8.76040284 C16.0683125,8.71373548 15.7480209,8.6186018 15.4402104,8.48936363 C15.529176,8.52705685 15.6181438,8.56564841 15.7053397,8.60154726 C15.280076,8.41756592 14.8868347,8.16896895 14.5203089,7.8835702 C14.5959303,7.94190669 14.669773,8.00024089 14.7445061,8.05857739 C14.4420251,7.82073744 14.1573316,7.56047363 13.8886493,7.28674631 C13.6884734,7.08212399 13.3859946,6.95916496 13.1013011,6.95916496 C12.8272894,6.95916496 12.5034449,7.08032273 12.3139529,7.28674631 C12.1208943,7.50034506 11.9758737,7.78034692 11.9892202,8.08100125 C12.0034548,8.38165558 12.1039881,8.65986308 12.3148412,8.87796728 L12.3147273,8.87778348 Z" id="Fill-1" fill="#2974FF"></path>
    </g>
</svg>